<svg xmlns="http://www.w3.org/2000/svg" width="1200" height="360" viewBox="0 0 1200 360" role="img" aria-labelledby="title desc">
  <title id="title">TRADR — учебная торговая платформа</title>
  <desc id="desc">Светлая биржевая панель с динамикой цены, тремя торговыми агентами и контролем риска.</desc>
  <rect width="1200" height="360" rx="28" fill="#FCFAFD"/>
  <rect x="36" y="36" width="1128" height="288" rx="22" fill="#FFFFFF" stroke="#EDE8EF"/>
  <g transform="translate(76 78)" font-family="-apple-system,BlinkMacSystemFont,'Segoe UI',sans-serif">
    <text x="0" y="0" fill="#B51686" font-size="18" font-weight="600">УЧЕБНАЯ БИРЖА · DESIGN CONCEPT</text>
    <text x="0" y="70" fill="#131313" font-size="62" font-weight="700">TRADR</text>
    <text x="0" y="112" fill="#625B69" font-size="25">Торговая симуляция с агентами</text>
    <text x="0" y="148" fill="#77727D" font-size="19">Один рынок. Разные решения. Никаких реальных денег.</text>
    <rect x="0" y="184" width="164" height="42" rx="13" fill="#FFF0FA"/>
    <text x="18" y="211" fill="#B51686" font-size="17" font-weight="600">3 агента</text>
    <rect x="178" y="184" width="188" height="42" rx="13" fill="#EAF8F3"/>
    <text x="196" y="211" fill="#00856F" font-size="17" font-weight="600">рынок в реальном времени</text>
  </g>
  <g transform="translate(748 68)" font-family="-apple-system,BlinkMacSystemFont,'Segoe UI',sans-serif">
    <rect width="368" height="226" rx="18" fill="#FCFAFD" stroke="#EDE8EF"/>
    <text x="24" y="34" fill="#131313" font-size="18" font-weight="600">AAPL · симуляция</text>
    <text x="24" y="61" fill="#00856F" font-size="17" font-weight="600">$194,28  +1,43%</text>
    <line x1="24" y1="176" x2="344" y2="176" stroke="#EEE8EF"/>
    <path d="M24 162 L58 148 L92 154 L126 126 L160 138 L194 104 L228 116 L262 84 L296 95 L344 62" fill="none" stroke="#E91BAC" stroke-width="7" stroke-linecap="round" stroke-linejoin="round"/>
    <circle cx="344" cy="62" r="7" fill="#E91BAC"/>
    <g transform="translate(24 194)">
      <rect width="94" height="18" rx="9" fill="#FFF0FA"/>
      <text x="12" y="14" fill="#B51686" font-size="12" font-weight="600">АГРЕССИВНЫЙ</text>
      <rect x="106" width="88" height="18" rx="9" fill="#F2EFFF"/>
      <text x="118" y="14" fill="#7551C8" font-size="12" font-weight="600">ОСТОРОЖНЫЙ</text>
      <rect x="206" width="84" height="18" rx="9" fill="#F1EFF2"/>
      <text x="218" y="14" fill="#625B69" font-size="12" font-weight="600">СЛУЧАЙНЫЙ</text>
    </g>
  </g>
</svg>
